Coordinates
version=1
nRows=6
nColumns=36
inDegrees=yes

Units are S.I. units (second, meters, Newtons, ...)
If the header above contains a line with 'inDegrees', this indicates whether rotational values are in degrees (yes) or radians (no).

endheader
time	pelvis_tilt	pelvis_list	pelvis_rotation	pelvis_tx	pelvis_ty	pelvis_tz	hip_flexion_r	hip_adduction_r	hip_rotation_r	knee_angle_r	knee_angle_r_beta	ankle_angle_r	subtalar_angle_r	mtp_angle_r	hip_flexion_l	hip_adduction_l	hip_rotation_l	knee_angle_l	knee_angle_l_beta	ankle_angle_l	subtalar_angle_l	mtp_angle_l	lumbar_extension	lumbar_bending	lumbar_rotation	arm_flex_r	arm_add_r	arm_rot_r	elbow_flex_r	pro_sup_r	arm_flex_l	arm_add_l	arm_rot_l	elbow_flex_l	pro_sup_l
      2.26666670	      5.51419450	      1.81577340	      6.71067959	      1.11803459	      0.93387026	      0.09471132	     -6.48994354	      7.87634918	      5.14202457	      5.79283585	      0.10110406	     11.77394322	     -5.47902453	     -7.49999987	      8.07936633	     -5.07335659	      2.23305645	     54.95562300	      0.95915656	      8.89490353	    -13.69170759	     -7.49999987	    -13.79289260	     -2.38338265	      0.29183916	     60.54457525	      5.24383890	     67.59328752	    122.33001989	     94.72550472	     64.73788617	      0.85757920	     62.59188664	    119.52261654	    104.57829095
      2.28333330	      6.39103761	      1.67174383	      6.40560650	      1.12283806	      0.93579190	      0.09137839	     -8.26352262	      8.05617597	      6.00563088	      5.08049179	      0.08867131	     11.16126304	     -5.26376319	     -7.49999987	      5.86072258	     -5.03614267	      2.17740884	     55.03919173	      0.96061511	      7.13090125	    -14.08677487	     -7.49999987	    -13.61368068	     -1.64413978	      0.24762861	     58.80933145	      5.24199749	     68.10944484	    122.91380707	     94.58107576	     62.99020943	      0.66334167	     61.95642367	    119.44112208	    104.69198959
      2.30000000	      7.23645807	      1.56600472	      6.18352540	      1.12303867	      0.94333072	      0.09150945	     -9.96637796	      8.19759827	      6.77725076	      4.38572114	      0.07654527	     10.43768208	     -5.11850672	     -7.49999987	      3.96403660	     -4.96207368	      2.15071018	     55.45106076	      0.96780358	      5.40207817	    -14.48508142	     -7.49999987	    -13.75037624	     -1.00038967	      0.38665372	     57.29442305	      5.01446968	     68.63206747	    122.51535886	     93.29158681	     61.65355881	      0.86304940	     62.59046165	    119.72146847	    103.24493392
      2.31666670	      7.65632573	      1.46113694	      6.08745303	      1.12745308	      0.93362926	      0.08809713	    -11.05964406	      8.29540021	      7.47183254	      3.98817732	      0.06960683	     10.05192353	     -5.11798763	     -7.49999987	      2.70143883	     -4.77408300	      2.36955026	     56.12728774	      0.97960597	      4.40157793	    -14.77117157	     -7.49999987	    -13.13495253	     -0.35359610	      0.27378320	     56.16879155	      5.39328506	     68.46954047	    122.72235022	     93.03631752	     60.83893198	      1.66498494	     62.59708584	    120.08212607	    104.82465727
      2.33333330	      7.93068895	      1.45447380	      6.12322766	      1.12741482	      0.93783408	      0.08785215	    -11.99734066	      8.29370122	      7.88111026	      3.46786324	      0.06052563	      9.77827804	     -4.91146241	     -7.49999987	      1.96517281	     -4.51313783	      2.70064601	     57.07874775	      0.99621208	      3.24602318	    -14.89238406	     -7.49999987	    -12.44646468	      0.09392391	     -0.15877958	     54.32731563	      5.08190905	     69.07998665	    123.72916045	     93.09321551	     59.40497076	      1.80797352	     62.65852390	    120.56615424	    104.98375329
      2.35000000	      8.22273571	      1.66896156	      6.01417050	      1.12665890	      0.93801792	      0.08793863	    -12.61632798	      8.07643642	      8.30077803	      3.27422559	      0.05714602	      9.80111534	     -4.73715859	     -7.49999987	      1.65711834	     -4.25147504	      2.62676596	     58.65815212	      1.02377789	      2.13741318	    -14.59438986	     -7.49999987	    -12.29396514	      0.21364603	     -0.24540778	     53.64724792	      4.84065315	     69.35719288	    123.86566369	     93.10883411	     58.81411829	      1.73786645	     62.87241987	    120.67280980	    105.01611685
